<svg width="20" height="20" viewBox="0 0 20 20" fill="none" xmlns="http://www.w3.org/2000/svg">
<g id="thumb" clip-path="url(#clip0_3170_5252)">
<path id="Vector" d="M2.5 8.125H6.25V16.25H2.5C2.33424 16.25 2.17527 16.1842 2.05806 16.0669C1.94085 15.9497 1.875 15.7908 1.875 15.625V8.75C1.875 8.58424 1.94085 8.42527 2.05806 8.30806C2.17527 8.19085 2.33424 8.125 2.5 8.125Z" stroke="#101114" stroke-width="1.5" stroke-linecap="round" stroke-linejoin="round"/>
<path id="Vector_2" d="M6.25 8.125L9.375 1.875C10.038 1.875 10.6739 2.13839 11.1428 2.60723C11.6116 3.07607 11.875 3.71196 11.875 4.375V6.25H16.875C17.0523 6.25005 17.2276 6.28782 17.3892 6.36081C17.5508 6.4338 17.695 6.54033 17.8123 6.67333C17.9295 6.80634 18.0172 6.96277 18.0693 7.13223C18.1215 7.3017 18.137 7.48033 18.1148 7.65625L17.1773 15.1562C17.1393 15.4583 16.9923 15.736 16.7641 15.9374C16.5358 16.1388 16.2419 16.2499 15.9375 16.25H6.25" stroke="#101114" stroke-width="1.5" stroke-linecap="round" stroke-linejoin="round"/>
</g>
<defs>
<clipPath id="clip0_3170_5252">
<rect width="20" height="20" fill="white"/>
</clipPath>
</defs>
</svg>
