<svg width="20" height="20" viewBox="0 0 20 20" fill="none" xmlns="http://www.w3.org/2000/svg">
<g id="thumb" clip-path="url(#clip0_3421_1867)">
<path id="Vector" d="M18.2813 6.25938C18.1053 6.05994 17.8888 5.90023 17.6464 5.79086C17.4039 5.68148 17.141 5.62495 16.875 5.625H12.5V4.375C12.5 3.5462 12.1708 2.75134 11.5847 2.16529C10.9987 1.57924 10.2038 1.25 9.375 1.25C9.25889 1.24992 9.14505 1.28218 9.04625 1.34317C8.94744 1.40417 8.86759 1.49148 8.81563 1.59531L5.86406 7.5H2.5C2.16848 7.5 1.85054 7.6317 1.61612 7.86612C1.3817 8.10054 1.25 8.41848 1.25 8.75V15.625C1.25 15.9565 1.3817 16.2745 1.61612 16.5089C1.85054 16.7433 2.16848 16.875 2.5 16.875H15.9375C16.3943 16.8752 16.8354 16.7085 17.1781 16.4065C17.5208 16.1044 17.7413 15.6876 17.7984 15.2344L18.7359 7.73438C18.7692 7.47033 18.7458 7.20224 18.6674 6.94792C18.589 6.6936 18.4574 6.45888 18.2813 6.25938ZM2.5 8.75H5.625V15.625H2.5V8.75Z" fill="#1B56FF"/>
</g>
<defs>
<clipPath id="clip0_3421_1867">
<rect width="20" height="20" fill="white"/>
</clipPath>
</defs>
</svg>
